<svg width="7" height="13" viewBox="0 0 7 13" fill="none" xmlns="http://www.w3.org/2000/svg">
<path d="M5.46311 6.5L0.18657 1.11088C0.067111 0.988843 0 0.823325 0 0.650738C0 0.478151 0.067111 0.312634 0.18657 0.190596C0.306029 0.0685587 0.46805 0 0.636991 0C0.805931 0 0.967952 0.0685587 1.08741 0.190596L6.8131 6.03986C6.87234 6.10023 6.91935 6.17195 6.95142 6.25091C6.98349 6.32987 7 6.41451 7 6.5C7 6.58549 6.98349 6.67013 6.95142 6.74909C6.91935 6.82805 6.87234 6.89977 6.8131 6.96014L1.08741 12.8094C0.967952 12.9314 0.805931 13 0.636991 13C0.46805 13 0.306029 12.9314 0.18657 12.8094C0.067111 12.6874 0 12.5218 0 12.3493C0 12.1767 0.067111 12.0112 0.18657 11.8891L5.46311 6.5Z" fill="#8994A3"/>
</svg>
